<svg xmlns="http://www.w3.org/2000/svg" xmlns:xlink="http://www.w3.org/1999/xlink" width="512" zoomAndPan="magnify"
    viewBox="0 0 384 383.999986" height="512" preserveAspectRatio="xMidYMid meet" version="1.0">
    <defs>
        <g />
        <clipPath id="359b91c803">
            <path
                d="M 27.941406 27.566406 L 356.058594 27.566406 L 356.058594 356.96875 L 27.941406 356.96875 Z M 27.941406 27.566406 "
                clip-rule="nonzero" />
        </clipPath>
        <clipPath id="2a07c6f569">
            <path
                d="M 39.460938 27.566406 L 344.539062 27.566406 C 347.59375 27.566406 350.523438 28.78125 352.683594 30.941406 C 354.84375 33.101562 356.058594 36.03125 356.058594 39.085938 L 356.058594 344.914062 C 356.058594 347.96875 354.84375 350.898438 352.683594 353.058594 C 350.523438 355.21875 347.59375 356.433594 344.539062 356.433594 L 39.460938 356.433594 C 36.40625 356.433594 33.476562 355.21875 31.316406 353.058594 C 29.15625 350.898438 27.941406 347.96875 27.941406 344.914062 L 27.941406 39.085938 C 27.941406 32.726562 33.097656 27.566406 39.460938 27.566406 Z M 39.460938 27.566406 "
                clip-rule="nonzero" />
        </clipPath>
        <clipPath id="4ca09cc21d">
            <path
                d="M 0.941406 0.566406 L 329.058594 0.566406 L 329.058594 329.640625 L 0.941406 329.640625 Z M 0.941406 0.566406 "
                clip-rule="nonzero" />
        </clipPath>
        <clipPath id="3fb0020333">
            <path
                d="M 12.460938 0.566406 L 317.539062 0.566406 C 320.59375 0.566406 323.523438 1.78125 325.683594 3.941406 C 327.84375 6.101562 329.058594 9.03125 329.058594 12.085938 L 329.058594 317.914062 C 329.058594 320.96875 327.84375 323.898438 325.683594 326.058594 C 323.523438 328.21875 320.59375 329.433594 317.539062 329.433594 L 12.460938 329.433594 C 9.40625 329.433594 6.476562 328.21875 4.316406 326.058594 C 2.15625 323.898438 0.941406 320.96875 0.941406 317.914062 L 0.941406 12.085938 C 0.941406 5.726562 6.097656 0.566406 12.460938 0.566406 Z M 12.460938 0.566406 "
                clip-rule="nonzero" />
        </clipPath>
        <clipPath id="8c7fa11f06">
            <rect x="0" width="330" y="0" height="330" />
        </clipPath>
        <clipPath id="488ce1c6d8">
            <rect x="0" width="306" y="0" height="134" />
        </clipPath>
    </defs>
    <g clip-path="url(#359b91c803)">
        <g clip-path="url(#2a07c6f569)">
            <g transform="matrix(1, 0, 0, 1, 27, 27)">
                <g clip-path="url(#8c7fa11f06)">
                    <g clip-path="url(#4ca09cc21d)">
                        <g clip-path="url(#3fb0020333)">
                            <path fill="#1d3334"
                                d="M 0.941406 0.566406 L 329.058594 0.566406 L 329.058594 329.96875 L 0.941406 329.96875 Z M 0.941406 0.566406 "
                                fill-opacity="1" fill-rule="nonzero" />
                        </g>
                    </g>
                </g>
            </g>
        </g>
    </g>
    <g transform="matrix(1, 0, 0, 1, 56, 125)">
        <g clip-path="url(#488ce1c6d8)">
            <g fill="#dbd3c7" fill-opacity="1">
                <g transform="translate(1.197136, 104.823983)">
                    <g>
                        <path
                            d="M 75.890625 -82.140625 C 75.003906 -81.253906 73.757812 -80.921875 72.15625 -81.140625 C 70.5625 -81.367188 69.144531 -81.484375 67.90625 -81.484375 C 65.332031 -81.484375 62.753906 -81.484375 60.171875 -81.484375 C 57.597656 -81.484375 55.023438 -81.484375 52.453125 -81.484375 C 51.210938 -81.484375 50.347656 -81.0625 49.859375 -80.21875 C 49.367188 -79.375 49.101562 -78.375 49.0625 -77.21875 C 49.019531 -76.0625 49 -75.039062 49 -74.15625 C 49 -62.4375 49 -50.738281 49 -39.0625 C 49 -27.394531 49.039062 -15.707031 49.125 -4 C 49.125 -2.570312 48.742188 -1.632812 47.984375 -1.1875 C 47.234375 -0.75 46.195312 -0.578125 44.875 -0.671875 C 43.445312 -0.753906 42 -0.816406 40.53125 -0.859375 C 39.070312 -0.910156 37.585938 -0.890625 36.078125 -0.796875 C 35.097656 -0.796875 33.941406 -0.59375 32.609375 -0.1875 C 31.285156 0.207031 30.179688 0.00390625 29.296875 -0.796875 C 28.578125 -1.503906 28.21875 -2.65625 28.21875 -4.25 C 28.21875 -5.851562 28.21875 -7.097656 28.21875 -7.984375 C 28.21875 -14.554688 28.238281 -21.125 28.28125 -27.6875 C 28.332031 -34.257812 28.359375 -40.785156 28.359375 -47.265625 C 28.359375 -50.640625 28.359375 -53.988281 28.359375 -57.3125 C 28.359375 -60.644531 28.3125 -63.953125 28.21875 -67.234375 C 28.21875 -68.117188 28.304688 -69.316406 28.484375 -70.828125 C 28.671875 -72.335938 28.738281 -73.867188 28.6875 -75.421875 C 28.644531 -76.972656 28.359375 -78.300781 27.828125 -79.40625 C 27.296875 -80.519531 26.316406 -81.078125 24.890625 -81.078125 C 21.347656 -81.078125 17.820312 -81.054688 14.3125 -81.015625 C 10.800781 -80.972656 7.273438 -80.90625 3.734375 -80.8125 C 3.285156 -80.8125 2.796875 -80.832031 2.265625 -80.875 C 1.734375 -80.925781 1.289062 -81.128906 0.9375 -81.484375 C 0.582031 -81.835938 0.359375 -82.257812 0.265625 -82.75 C 0.179688 -83.238281 0.140625 -83.703125 0.140625 -84.140625 C 0.046875 -86.179688 0 -88.203125 0 -90.203125 C 0 -92.203125 0 -94.175781 0 -96.125 C 0 -96.476562 0.0195312 -96.832031 0.0625 -97.1875 C 0.113281 -97.539062 0.269531 -97.851562 0.53125 -98.125 C 0.882812 -98.476562 1.28125 -98.695312 1.71875 -98.78125 C 2.164062 -98.875 2.613281 -98.921875 3.0625 -98.921875 C 14.6875 -98.660156 26.269531 -98.53125 37.8125 -98.53125 C 49.351562 -98.53125 60.890625 -98.617188 72.421875 -98.796875 C 73.046875 -98.796875 73.664062 -98.769531 74.28125 -98.71875 C 74.90625 -98.675781 75.441406 -98.429688 75.890625 -97.984375 C 76.335938 -97.546875 76.625 -96.992188 76.75 -96.328125 C 76.882812 -95.660156 77 -95.015625 77.09375 -94.390625 C 77.09375 -93.328125 77.113281 -92.265625 77.15625 -91.203125 C 77.195312 -90.140625 77.21875 -89.070312 77.21875 -88 C 77.3125 -87.113281 77.332031 -86.25 77.28125 -85.40625 C 77.238281 -84.5625 77 -83.785156 76.5625 -83.078125 C 76.46875 -82.816406 76.242188 -82.503906 75.890625 -82.140625 Z M 75.890625 -82.140625 " />
                    </g>
                </g>
            </g>
            <g fill="#dbd3c7" fill-opacity="1">
                <g transform="translate(126.079277, 104.823983)">
                    <g>
                        <path
                            d="M 4.53125 -98.796875 C 4.613281 -98.796875 4.695312 -98.796875 4.78125 -98.796875 C 4.875 -98.796875 4.96875 -98.796875 5.0625 -98.796875 C 7.28125 -98.796875 9.453125 -98.769531 11.578125 -98.71875 C 13.710938 -98.675781 15.890625 -98.613281 18.109375 -98.53125 C 19.703125 -98.4375 20.5 -97.8125 20.5 -96.65625 C 20.5 -95.5 20.5 -94.300781 20.5 -93.0625 C 20.5 -85.425781 20.5 -77.75 20.5 -70.03125 C 20.5 -62.3125 20.5 -54.632812 20.5 -47 C 20.5 -43.363281 20.476562 -39.703125 20.4375 -36.015625 C 20.394531 -32.328125 20.375 -28.664062 20.375 -25.03125 C 20.375 -21.65625 20.570312 -18.257812 20.96875 -14.84375 C 21.363281 -11.425781 21.34375 -7.988281 20.90625 -4.53125 C 20.632812 -2.84375 20.054688 -1.753906 19.171875 -1.265625 C 18.285156 -0.773438 17 -0.441406 15.3125 -0.265625 C 14.507812 -0.179688 13.285156 -0.113281 11.640625 -0.0625 C 10.003906 -0.0195312 8.296875 -0.109375 6.515625 -0.328125 C 4.742188 -0.554688 3.210938 -1 1.921875 -1.65625 C 0.640625 -2.320312 0 -3.28125 0 -4.53125 C 0 -19.4375 0.0195312 -34.34375 0.0625 -49.25 C 0.113281 -64.164062 0.09375 -79.082031 0 -94 C 0 -95.769531 0.332031 -96.988281 1 -97.65625 C 1.664062 -98.320312 2.84375 -98.703125 4.53125 -98.796875 Z M 4.53125 -98.796875 " />
                    </g>
                </g>
            </g>
            <g fill="#dbd3c7" fill-opacity="1">
                <g transform="translate(194.911004, 104.823983)">
                    <g>
                        <path
                            d="M 17.84375 -97.859375 C 18.019531 -97.765625 18.171875 -97.71875 18.296875 -97.71875 C 18.429688 -97.71875 18.546875 -97.675781 18.640625 -97.59375 C 19.347656 -97.238281 19.769531 -96.660156 19.90625 -95.859375 C 20.039062 -95.054688 20.0625 -94.257812 19.96875 -93.46875 C 19.96875 -86.457031 19.96875 -79.421875 19.96875 -72.359375 C 19.96875 -65.304688 19.96875 -58.226562 19.96875 -51.125 C 19.96875 -47.664062 19.96875 -44.203125 19.96875 -40.734375 C 19.96875 -37.273438 19.96875 -33.816406 19.96875 -30.359375 C 19.96875 -28.492188 19.921875 -26.648438 19.828125 -24.828125 C 19.742188 -23.003906 20.097656 -21.492188 20.890625 -20.296875 C 21.691406 -19.097656 23.335938 -18.5 25.828125 -18.5 C 30.359375 -18.675781 34.882812 -18.765625 39.40625 -18.765625 C 43.9375 -18.765625 48.460938 -18.765625 52.984375 -18.765625 C 53.960938 -18.765625 55.140625 -18.832031 56.515625 -18.96875 C 57.890625 -19.101562 59.019531 -18.992188 59.90625 -18.640625 C 60.976562 -18.285156 61.691406 -17.441406 62.046875 -16.109375 C 62.398438 -14.773438 62.550781 -13.21875 62.5 -11.4375 C 62.457031 -9.664062 62.347656 -7.984375 62.171875 -6.390625 C 61.992188 -4.796875 61.863281 -3.597656 61.78125 -2.796875 C 61.6875 -2.617188 61.640625 -2.441406 61.640625 -2.265625 C 61.640625 -2.085938 61.550781 -1.910156 61.375 -1.734375 C 61.195312 -1.554688 60.890625 -1.378906 60.453125 -1.203125 C 57.160156 -0.128906 53.601562 0.226562 49.78125 -0.125 C 45.96875 -0.488281 42.378906 -0.710938 39.015625 -0.796875 C 34.835938 -0.796875 30.640625 -0.863281 26.421875 -1 C 22.210938 -1.132812 18.019531 -1.203125 13.84375 -1.203125 C 12.601562 -1.203125 10.960938 -1.113281 8.921875 -0.9375 C 6.878906 -0.757812 5.035156 -0.847656 3.390625 -1.203125 C 1.753906 -1.554688 0.800781 -2.578125 0.53125 -4.265625 C 0.269531 -6.390625 0.140625 -8.5625 0.140625 -10.78125 C 0.140625 -13 0.140625 -15.175781 0.140625 -17.3125 C 0.046875 -21.75 0.0390625 -26.117188 0.125 -30.421875 C 0.21875 -34.722656 0.222656 -39.050781 0.140625 -43.40625 C 0.140625 -50.59375 0.140625 -57.757812 0.140625 -64.90625 C 0.140625 -72.050781 0.226562 -79.21875 0.40625 -86.40625 C 0.40625 -87.914062 0.289062 -89.664062 0.0625 -91.65625 C -0.15625 -93.65625 0.132812 -95.320312 0.9375 -96.65625 C 1.726562 -97.988281 3.054688 -98.722656 4.921875 -98.859375 C 6.785156 -98.992188 8.738281 -98.925781 10.78125 -98.65625 C 12.820312 -98.382812 14.460938 -98.207031 15.703125 -98.125 C 16.066406 -98.125 16.425781 -98.097656 16.78125 -98.046875 C 17.132812 -98.003906 17.488281 -97.941406 17.84375 -97.859375 Z M 17.84375 -97.859375 " />
                    </g>
                </g>
            </g>
        </g>
    </g>
</svg>
